<?xml version="1.0" encoding="utf-8"?>
<svg xmlns="http://www.w3.org/2000/svg" xmlns:xlink="http://www.w3.org/1999/xlink" style="margin: auto; background: none; display: block; shape-rendering: auto;" width="200px" height="200px" viewBox="0 0 100 100" preserveAspectRatio="xMidYMid">
<g transform="translate(50 50)">
<g>
<animateTransform attributeName="transform" type="rotate" values="0;36" keyTimes="0;1" dur="0.4s" repeatCount="indefinite"></animateTransform><path d="M29.58039891549808 -5 L39.58039891549808 -5 L39.58039891549808 5 L29.58039891549808 5 A30 30 0 0 1 26.86997168449058 13.341837267583301 L26.86997168449058 13.341837267583301 L34.96014162824005 19.21968979050803 L29.08228910531532 27.3098597342575 L20.992119161565846 21.43200721133277 A30 30 0 0 1 13.89612854675494 26.587546171319808 L13.89612854675494 26.587546171319808 L16.986298490504414 36.098111334271344 L7.475733327552881 39.18828127802082 L4.385563383803406 29.67771611506928 A30 30 0 0 1 -4.385563383803403 29.67771611506928 L-4.385563383803403 29.67771611506928 L-7.475733327552876 39.18828127802082 L-16.98629849050441 36.098111334271344 L-13.896128546754936 26.587546171319808 A30 30 0 0 1 -20.992119161565846 21.432007211332774 L-20.992119161565846 21.432007211332774 L-29.08228910531532 27.309859734257508 L-34.96014162824005 19.219689790508035 L-26.869971684490576 13.341837267583305 A30 30 0 0 1 -29.58039891549808 5.000000000000002 L-29.58039891549808 5.000000000000002 L-39.58039891549808 5.000000000000003 L-39.58039891549808 -4.999999999999995 L-29.58039891549808 -4.999999999999996 A30 30 0 0 1 -26.86997168449058 -13.341837267583298 L-26.86997168449058 -13.341837267583298 L-34.96014162824005 -19.219689790508028 L-29.082289105315326 -27.3098597342575 L-20.99211916156585 -21.43200721133277 A30 30 0 0 1 -13.896128546754953 -26.587546171319797 L-13.896128546754953 -26.587546171319797 L-16.986298490504428 -36.09811133427133 L-7.475733327552872 -39.18828127802082 L-4.3855633838033965 -29.677716115069284 A30 30 0 0 1 4.385563383803385 -29.677716115069284 L4.385563383803385 -29.677716115069284 L7.475733327552858 -39.188281278020824 L16.986298490504417 -36.09811133427134 L13.896128546754944 -26.587546171319804 A30 30 0 0 1 20.99211916156583 -21.432007211332788 L20.99211916156583 -21.432007211332788 L29.082289105315304 -27.309859734257522 L34.96014162824005 -19.219689790508028 L26.86997168449058 -13.341837267583296 A30 30 0 0 1 29.580398915498076 -5.0000000000000195 M0 -20A20 20 0 1 0 0 20 A20 20 0 1 0 0 -20" fill="#2b3870"></path></g></g>
<!-- [ldio] generated by https://loading.io/ --></svg>